<svg xmlns="http://www.w3.org/2000/svg" width="356.20000000000005" height="35" viewBox="0 0 356.20000000000005 35"><rect class="svg__rect" x="0" y="0" width="174.85000000000002" height="35" fill="#E46C17"/><rect class="svg__rect" x="172.85000000000002" y="0" width="183.35000000000002" height="35" fill="#D35B09"/><path class="svg__text" d="M16.25 14.66L13.61 14.66L13.61 13.47L20.38 13.47L20.38 14.66L17.72 14.66L17.72 22L16.25 22L16.25 14.66ZM25.62 22L24.14 22L24.14 13.47L27.14 13.47Q28.61 13.47 29.42 14.13Q30.22 14.79 30.22 16.05L30.22 16.05Q30.22 16.90 29.81 17.48Q29.39 18.06 28.65 18.37L28.65 18.37L30.57 21.92L30.57 22L28.98 22L27.27 18.71L25.62 18.71L25.62 22ZM25.62 14.66L25.62 17.52L27.14 17.52Q27.89 17.52 28.31 17.15Q28.74 16.77 28.74 16.11L28.74 16.11Q28.74 15.43 28.35 15.05Q27.96 14.68 27.18 14.66L27.18 14.66L25.62 14.66ZM36.18 22L34.70 22L34.70 13.47L36.18 13.47L36.18 22ZM40.74 18.13L40.74 18.13L40.74 17.46Q40.74 15.53 41.67 14.44Q42.59 13.35 44.25 13.35L44.25 13.35Q45.68 13.35 46.51 14.05Q47.35 14.76 47.52 16.08L47.52 16.08L46.07 16.08Q45.82 14.54 44.28 14.54L44.28 14.54Q43.29 14.54 42.77 15.26Q42.25 15.98 42.23 17.37L42.23 17.37L42.23 18.02Q42.23 19.40 42.81 20.17Q43.40 20.93 44.43 20.93L44.43 20.93Q45.57 20.93 46.05 20.42L46.05 20.42L46.05 18.75L44.29 18.75L44.29 17.62L47.53 17.62L47.53 20.89Q47.06 21.50 46.24 21.81Q45.42 22.12 44.38 22.12L44.38 22.12Q43.31 22.12 42.48 21.63Q41.66 21.14 41.21 20.24Q40.76 19.33 40.74 18.13ZM51.90 18.13L51.90 18.13L51.90 17.46Q51.90 15.53 52.82 14.44Q53.75 13.35 55.41 13.35L55.41 13.35Q56.83 13.35 57.67 14.05Q58.51 14.76 58.68 16.08L58.68 16.08L57.23 16.08Q56.98 14.54 55.44 14.54L55.44 14.54Q54.44 14.54 53.92 15.26Q53.40 15.98 53.39 17.37L53.39 17.37L53.39 18.02Q53.39 19.40 53.97 20.17Q54.55 20.93 55.59 20.93L55.59 20.93Q56.73 20.93 57.21 20.42L57.21 20.42L57.21 18.75L55.45 18.75L55.45 17.62L58.68 17.62L58.68 20.89Q58.22 21.50 57.40 21.81Q56.58 22.12 55.54 22.12L55.54 22.12Q54.47 22.12 53.64 21.63Q52.81 21.14 52.36 20.24Q51.92 19.33 51.90 18.13ZM68.88 22L63.30 22L63.30 13.47L68.84 13.47L68.84 14.66L64.78 14.66L64.78 17.02L68.29 17.02L68.29 18.19L64.78 18.19L64.78 20.82L68.88 20.82L68.88 22ZM74.56 22L73.07 22L73.07 13.47L76.07 13.47Q77.55 13.47 78.35 14.13Q79.16 14.79 79.16 16.05L79.16 16.05Q79.16 16.90 78.74 17.48Q78.33 18.06 77.59 18.37L77.59 18.37L79.51 21.92L79.51 22L77.92 22L76.21 18.71L74.56 18.71L74.56 22ZM74.56 14.66L74.56 17.52L76.08 17.52Q76.83 17.52 77.25 17.15Q77.67 16.77 77.67 16.11L77.67 16.11Q77.67 15.43 77.28 15.05Q76.89 14.68 76.12 14.66L76.12 14.66L74.56 14.66ZM90.91 22L88.94 13.47L90.41 13.47L91.74 19.88L93.37 13.47L94.61 13.47L96.22 19.89L97.53 13.47L99.00 13.47L97.03 22L95.62 22L93.99 15.77L92.33 22L90.91 22ZM103.85 22L102.31 22L105.54 13.47L106.87 13.47L110.09 22L108.55 22L107.85 20.01L104.55 20.01L103.85 22ZM106.20 15.28L104.96 18.82L107.43 18.82L106.20 15.28ZM115.53 22L114.05 22L114.05 13.47L117.05 13.47Q118.53 13.47 119.33 14.13Q120.13 14.79 120.13 16.05L120.13 16.05Q120.13 16.90 119.72 17.48Q119.31 18.06 118.57 18.37L118.57 18.37L120.48 21.92L120.48 22L118.89 22L117.18 18.71L115.53 18.71L115.53 22ZM115.53 14.66L115.53 17.52L117.06 17.52Q117.81 17.52 118.23 17.15Q118.65 16.77 118.65 16.11L118.65 16.11Q118.65 15.43 118.26 15.05Q117.87 14.68 117.10 14.66L117.10 14.66L115.53 14.66ZM126.01 22L124.53 22L124.53 13.47L126.01 13.47L129.82 19.54L129.82 13.47L131.29 13.47L131.29 22L129.81 22L126.01 15.95L126.01 22ZM137.60 22L136.12 22L136.12 13.47L137.60 13.47L137.60 22ZM143.89 22L142.41 22L142.41 13.47L143.89 13.47L147.71 19.54L147.71 13.47L149.18 13.47L149.18 22L147.69 22L143.89 15.95L143.89 22ZM153.67 18.13L153.67 18.13L153.67 17.46Q153.67 15.53 154.60 14.44Q155.52 13.35 157.18 13.35L157.18 13.35Q158.60 13.35 159.44 14.05Q160.28 14.76 160.45 16.08L160.45 16.08L159.00 16.08Q158.75 14.54 157.21 14.54L157.21 14.54Q156.21 14.54 155.69 15.26Q155.18 15.98 155.16 17.37L155.16 17.37L155.16 18.02Q155.16 19.40 155.74 20.17Q156.32 20.93 157.36 20.93L157.36 20.93Q158.50 20.93 158.98 20.42L158.98 20.42L158.98 18.75L157.22 18.75L157.22 17.62L160.46 17.62L160.46 20.89Q159.99 21.50 159.17 21.81Q158.35 22.12 157.31 22.12L157.31 22.12Q156.24 22.12 155.41 21.63Q154.58 21.14 154.14 20.24Q153.69 19.33 153.67 18.13Z" fill="#FFFFFF"/><path class="svg__text" d="M186.45 21.24L186.45 21.24L187.23 19.49Q187.79 19.86 188.54 20.09Q189.28 20.32 190.00 20.32L190.00 20.32Q191.37 20.32 191.37 19.64L191.37 19.64Q191.37 19.28 190.98 19.11Q190.59 18.93 189.73 18.74L189.73 18.74Q188.78 18.53 188.14 18.30Q187.51 18.06 187.05 17.55Q186.60 17.03 186.60 16.16L186.60 16.16Q186.60 15.39 187.02 14.77Q187.44 14.15 188.27 13.79Q189.11 13.43 190.31 13.43L190.31 13.43Q191.14 13.43 191.95 13.62Q192.75 13.80 193.37 14.17L193.37 14.17L192.63 15.93Q191.43 15.28 190.30 15.28L190.30 15.28Q189.59 15.28 189.27 15.49Q188.95 15.70 188.95 16.04L188.95 16.04Q188.95 16.37 189.33 16.54Q189.72 16.71 190.57 16.89L190.57 16.89Q191.53 17.10 192.16 17.33Q192.79 17.56 193.25 18.07Q193.71 18.58 193.71 19.46L193.71 19.46Q193.71 20.21 193.29 20.83Q192.87 21.44 192.03 21.80Q191.19 22.17 189.99 22.17L189.99 22.17Q188.97 22.17 188.01 21.92Q187.05 21.67 186.45 21.24ZM200.67 22L198.29 22L198.29 13.60L202.13 13.60Q203.27 13.60 204.11 13.98Q204.95 14.35 205.41 15.06Q205.86 15.76 205.86 16.71L205.86 16.71Q205.86 17.66 205.41 18.35Q204.95 19.05 204.11 19.42Q203.27 19.80 202.13 19.80L202.13 19.80L200.67 19.80L200.67 22ZM200.67 15.47L200.67 17.93L201.99 17.93Q202.72 17.93 203.09 17.61Q203.46 17.29 203.46 16.71L203.46 16.71Q203.46 16.12 203.09 15.80Q202.72 15.47 201.99 15.47L201.99 15.47L200.67 15.47ZM212.03 22L209.61 22L213.32 13.60L215.66 13.60L219.38 22L216.91 22L216.25 20.37L212.70 20.37L212.03 22ZM214.47 15.93L213.39 18.61L215.55 18.61L214.47 15.93ZM223.10 17.80L223.10 17.80Q223.10 16.54 223.70 15.54Q224.30 14.55 225.37 13.99Q226.44 13.43 227.78 13.43L227.78 13.43Q228.96 13.43 229.89 13.83Q230.83 14.22 231.45 14.97L231.45 14.97L229.94 16.33Q229.10 15.40 227.92 15.40L227.92 15.40Q227.91 15.40 227.90 15.40L227.90 15.40Q226.82 15.40 226.16 16.06Q225.50 16.71 225.50 17.80L225.50 17.80Q225.50 18.50 225.80 19.04Q226.10 19.59 226.64 19.89Q227.18 20.20 227.88 20.20L227.88 20.20Q228.56 20.20 229.16 19.93L229.16 19.93L229.16 17.62L231.26 17.62L231.26 21.10Q230.54 21.61 229.60 21.89Q228.67 22.17 227.73 22.17L227.73 22.17Q226.41 22.17 225.36 21.61Q224.30 21.05 223.70 20.05Q223.10 19.06 223.10 17.80ZM238.63 22L236.25 22L236.25 13.60L238.63 13.60L238.63 16.76L241.87 16.76L241.87 13.60L244.24 13.60L244.24 22L241.87 22L241.87 18.72L238.63 18.72L238.63 22ZM256.15 22L249.41 22L249.41 13.60L256.00 13.60L256.00 15.44L251.76 15.44L251.76 16.85L255.49 16.85L255.49 18.63L251.76 18.63L251.76 20.17L256.15 20.17L256.15 22ZM262.75 15.48L260.16 15.48L260.16 13.60L267.69 13.60L267.69 15.48L265.12 15.48L265.12 22L262.75 22L262.75 15.48ZM273.85 15.48L271.27 15.48L271.27 13.60L278.79 13.60L278.79 15.48L276.22 15.48L276.22 22L273.85 22L273.85 15.48ZM285.54 22L283.16 22L283.16 13.60L285.54 13.60L285.54 22ZM297.26 17.80L297.26 17.80Q297.26 16.54 297.86 15.54Q298.45 14.55 299.51 13.99Q300.56 13.43 301.88 13.43L301.88 13.43Q303.03 13.43 303.95 13.84Q304.88 14.25 305.49 15.02L305.49 15.02L303.98 16.39Q303.16 15.40 302.00 15.40L302.00 15.40Q301.31 15.40 300.78 15.70Q300.25 16 299.95 16.54Q299.66 17.09 299.66 17.80L299.66 17.80Q299.66 18.51 299.95 19.05Q300.25 19.60 300.78 19.90Q301.31 20.20 302.00 20.20L302.00 20.20Q303.16 20.20 303.98 19.22L303.98 19.22L305.49 20.58Q304.88 21.35 303.96 21.76Q303.03 22.17 301.88 22.17L301.88 22.17Q300.56 22.17 299.51 21.61Q298.45 21.05 297.86 20.05Q297.26 19.06 297.26 17.80ZM309.60 17.80L309.60 17.80Q309.60 16.55 310.20 15.55Q310.81 14.56 311.87 14.00Q312.93 13.43 314.26 13.43L314.26 13.43Q315.59 13.43 316.66 14.00Q317.72 14.56 318.33 15.55Q318.93 16.55 318.93 17.80L318.93 17.80Q318.93 19.05 318.33 20.04Q317.72 21.04 316.66 21.60Q315.60 22.17 314.26 22.17L314.26 22.17Q312.93 22.17 311.87 21.60Q310.81 21.04 310.20 20.04Q309.60 19.05 309.60 17.80ZM311.99 17.80L311.99 17.80Q311.99 18.51 312.30 19.05Q312.60 19.60 313.11 19.90Q313.63 20.20 314.26 20.20L314.26 20.20Q314.90 20.20 315.42 19.90Q315.93 19.60 316.23 19.05Q316.53 18.51 316.53 17.80L316.53 17.80Q316.53 17.09 316.23 16.54Q315.93 16 315.42 15.70Q314.90 15.40 314.26 15.40L314.26 15.40Q313.62 15.40 313.11 15.70Q312.60 16 312.30 16.54Q311.99 17.09 311.99 17.80ZM327.63 22L323.66 22L323.66 13.60L327.63 13.60Q329.02 13.60 330.08 14.12Q331.15 14.63 331.74 15.58Q332.33 16.53 332.33 17.80L332.33 17.80Q332.33 19.07 331.74 20.02Q331.15 20.97 330.08 21.48Q329.02 22 327.63 22L327.63 22ZM326.04 15.50L326.04 20.10L327.54 20.10Q328.62 20.10 329.27 19.49Q329.92 18.88 329.92 17.80L329.92 17.80Q329.92 16.72 329.27 16.11Q328.62 15.50 327.54 15.50L327.54 15.50L326.04 15.50ZM343.80 22L337.06 22L337.06 13.60L343.65 13.60L343.65 15.44L339.41 15.44L339.41 16.85L343.14 16.85L343.14 18.63L339.41 18.63L339.41 20.17L343.80 20.17L343.80 22Z" fill="#FFFFFF" x="185.85000000000002"/></svg>