<svg xmlns="http://www.w3.org/2000/svg" width="184.63" height="35" viewBox="0 0 184.63 35"><rect class="svg__rect" x="0" y="0" width="64.89" height="35" fill="#0B70AC"/><rect class="svg__rect" x="62.89" y="0" width="121.74000000000001" height="35" fill="#005384"/><path class="svg__text" d="M14.08 19.16L14.08 19.16L14.08 13.47L15.56 13.47L15.56 19.18Q15.56 20.03 15.99 20.48Q16.43 20.93 17.27 20.93L17.27 20.93Q18.98 20.93 18.98 19.13L18.98 19.13L18.98 13.47L20.46 13.47L20.46 19.17Q20.46 20.53 19.59 21.32Q18.72 22.12 17.27 22.12L17.27 22.12Q15.81 22.12 14.94 21.33Q14.08 20.55 14.08 19.16ZM24.59 19.42L24.59 19.42L26.08 19.42Q26.08 20.15 26.56 20.55Q27.04 20.95 27.93 20.95L27.93 20.95Q28.71 20.95 29.10 20.63Q29.49 20.32 29.49 19.80L29.49 19.80Q29.49 19.24 29.09 18.94Q28.70 18.63 27.66 18.32Q26.63 18.01 26.02 17.63L26.02 17.63Q24.86 16.90 24.86 15.72L24.86 15.72Q24.86 14.69 25.70 14.02Q26.54 13.35 27.88 13.35L27.88 13.35Q28.77 13.35 29.47 13.68Q30.17 14.01 30.56 14.61Q30.96 15.22 30.96 15.96L30.96 15.96L29.49 15.96Q29.49 15.29 29.07 14.91Q28.65 14.54 27.87 14.54L27.87 14.54Q27.14 14.54 26.74 14.85Q26.34 15.16 26.34 15.71L26.34 15.71Q26.34 16.18 26.77 16.50Q27.21 16.81 28.20 17.10Q29.20 17.40 29.80 17.78Q30.41 18.16 30.69 18.65Q30.97 19.13 30.97 19.79L30.97 19.79Q30.97 20.86 30.15 21.49Q29.33 22.12 27.93 22.12L27.93 22.12Q27.01 22.12 26.23 21.77Q25.46 21.43 25.02 20.83Q24.59 20.22 24.59 19.42ZM40.84 22L35.26 22L35.26 13.47L40.80 13.47L40.80 14.66L36.74 14.66L36.74 17.02L40.24 17.02L40.24 18.19L36.74 18.19L36.74 20.82L40.84 20.82L40.84 22ZM44.60 19.42L44.60 19.42L46.08 19.42Q46.08 20.15 46.56 20.55Q47.04 20.95 47.94 20.95L47.94 20.95Q48.71 20.95 49.10 20.63Q49.49 20.32 49.49 19.80L49.49 19.80Q49.49 19.24 49.10 18.94Q48.70 18.63 47.67 18.32Q46.64 18.01 46.03 17.63L46.03 17.63Q44.86 16.90 44.86 15.72L44.86 15.72Q44.86 14.69 45.70 14.02Q46.54 13.35 47.89 13.35L47.89 13.35Q48.78 13.35 49.47 13.68Q50.17 14.01 50.57 14.61Q50.97 15.22 50.97 15.96L50.97 15.96L49.49 15.96Q49.49 15.29 49.07 14.91Q48.65 14.54 47.87 14.54L47.87 14.54Q47.15 14.54 46.75 14.85Q46.34 15.16 46.34 15.71L46.34 15.71Q46.34 16.18 46.78 16.50Q47.21 16.81 48.21 17.10Q49.20 17.40 49.81 17.78Q50.41 18.16 50.69 18.65Q50.97 19.13 50.97 19.79L50.97 19.79Q50.97 20.86 50.16 21.49Q49.34 22.12 47.94 22.12L47.94 22.12Q47.01 22.12 46.24 21.77Q45.46 21.43 45.03 20.83Q44.60 20.22 44.60 19.42Z" fill="#FFFFFF"/><path class="svg__text" d="M78.50 22L76.07 22L79.78 13.60L82.12 13.60L85.84 22L83.37 22L82.71 20.37L79.16 20.37L78.50 22ZM80.93 15.93L79.85 18.61L82.01 18.61L80.93 15.93ZM92.37 22L89.99 22L89.99 13.60L93.84 13.60Q94.98 13.60 95.82 13.98Q96.65 14.35 97.11 15.06Q97.57 15.76 97.57 16.71L97.57 16.71Q97.57 17.62 97.14 18.30Q96.71 18.98 95.92 19.36L95.92 19.36L97.73 22L95.19 22L93.67 19.77L92.37 19.77L92.37 22ZM92.37 15.47L92.37 17.93L93.69 17.93Q94.42 17.93 94.79 17.61Q95.17 17.29 95.17 16.71L95.17 16.71Q95.17 16.12 94.79 15.79Q94.42 15.47 93.69 15.47L93.69 15.47L92.37 15.47ZM101.93 17.80L101.93 17.80Q101.93 16.54 102.53 15.54Q103.12 14.55 104.17 13.99Q105.23 13.43 106.54 13.43L106.54 13.43Q107.70 13.43 108.62 13.84Q109.54 14.25 110.16 15.02L110.16 15.02L108.65 16.39Q107.83 15.40 106.67 15.40L106.67 15.40Q105.98 15.40 105.45 15.70Q104.92 16 104.62 16.54Q104.32 17.09 104.32 17.80L104.32 17.80Q104.32 18.51 104.62 19.05Q104.92 19.60 105.45 19.90Q105.98 20.20 106.67 20.20L106.67 20.20Q107.83 20.20 108.65 19.22L108.65 19.22L110.16 20.58Q109.55 21.35 108.62 21.76Q107.70 22.17 106.54 22.17L106.54 22.17Q105.23 22.17 104.17 21.61Q103.12 21.05 102.53 20.05Q101.93 19.06 101.93 17.80ZM117.07 22L114.70 22L114.70 13.60L117.07 13.60L117.07 16.76L120.31 16.76L120.31 13.60L122.69 13.60L122.69 22L120.31 22L120.31 18.72L117.07 18.72L117.07 22ZM139.36 22L134.82 22L134.82 13.60L139.12 13.60Q140.73 13.60 141.57 14.19Q142.41 14.79 142.41 15.79L142.41 15.79Q142.41 16.39 142.11 16.87Q141.82 17.34 141.28 17.62L141.28 17.62Q142.00 17.87 142.41 18.41Q142.81 18.94 142.81 19.70L142.81 19.70Q142.81 20.80 141.93 21.40Q141.04 22 139.36 22L139.36 22ZM137.18 18.58L137.18 20.28L139.17 20.28Q140.42 20.28 140.42 19.43L140.42 19.43Q140.42 18.58 139.17 18.58L139.17 18.58L137.18 18.58ZM137.18 15.31L137.18 16.94L138.81 16.94Q140.01 16.94 140.01 16.12L140.01 16.12Q140.01 15.31 138.81 15.31L138.81 15.31L137.18 15.31ZM149.32 15.48L146.74 15.48L146.74 13.60L154.26 13.60L154.26 15.48L151.70 15.48L151.70 22L149.32 22L149.32 15.48ZM160.71 22L157.99 13.60L160.44 13.60L162.13 18.96L163.90 13.60L166.09 13.60L167.78 19.01L169.54 13.60L171.81 13.60L169.09 22L166.54 22L164.94 16.89L163.26 22L160.71 22Z" fill="#FFFFFF" x="75.89"/></svg>